HIERARCHY
ROOT ui
{
	 OFFSET 0 0 0
	 CHANNELS 3 XPosition YPosition Z Position
	 EndSite
	 {
	 OFFSET 0 -1 0
	 }
}
ROOT li
{
	 OFFSET 0 0 0
	 CHANNELS 3 XPosition YPosition Z Position
	 EndSite
	 {
	 OFFSET 0 -1 0
	 }
}
ROOT ul
{
	 OFFSET 0 0 0
	 CHANNELS 3 XPosition YPosition Z Position
	 EndSite
	 {
	 OFFSET 0 -1 0
	 }
}
ROOT ll
{
	 OFFSET 0 0 0
	 CHANNELS 3 XPosition YPosition Z Position
	 EndSite
	 {
	 OFFSET 0 -1 0
	 }
}
ROOT tt
{
	 OFFSET 0 0 0
	 CHANNELS 3 XPosition YPosition Z Position
	 EndSite
	 {
	 OFFSET 0 -1 0
	 }
}
ROOT tb
{
	 OFFSET 0 0 0
	 CHANNELS 3 XPosition YPosition Z Position
	 EndSite
	 {
	 OFFSET 0 -1 0
	 }
}
ROOT td
{
	 OFFSET 0 0 0
	 CHANNELS 3 XPosition YPosition Z Position
	 EndSite
	 {
	 OFFSET 0 -1 0
	 }
}
ROOT v
{
	 OFFSET 0 0 0
	 CHANNELS 3 XPosition YPosition Z Position
	 EndSite
	 {
	 OFFSET 0 -1 0
	 }
}
ROOT bn
{
	 OFFSET 0 0 0
	 CHANNELS 3 XPosition YPosition Z Position
	 EndSite
	 {
	 OFFSET 0 -1 0
	 }
}
MOTION
Frames: 18
Frame Time: 0.002
-0.006134204864501953	-7.648829817771912E-4	0		0.42730117797851563	-2.452259033203125	0		-1.2172725830078126	0.05679298782348633	0		-0.8265965576171875	-2.649949462890625	0		1.29481640625	-0.66009912109375	0		2.954650390625	-0.039892913818359375	0		4.60705078125	0.12737316131591797	0		5.55821240234375	0.19339630126953125	0		-0.3324224853515625	5.89533154296875	0		
-0.0665406494140625	-0.006772377014160156	0		0.44302346801757814	-2.458656005859375	0		-1.208470947265625	0.061441417694091796	0		-0.7789812622070312	-2.66300244140625	0		1.260679931640625	-0.6535261840820312	0		2.96425244140625	-0.04605139923095703	0		4.611775390625	0.12838937377929688	0		5.56159228515625	0.19522882080078124	0		-0.327988037109375	5.896099609375	0		
0.01302663803100586	-0.009389036178588868	0		0.397923095703125	-2.448933837890625	0		-1.199802490234375	0.0650799331665039	0		-0.8379946899414062	-2.64908447265625	0		1.26840380859375	-0.6487426147460937	0		2.957355224609375	-0.018906538009643554	0		4.61049755859375	0.13551109313964843	0		5.57196875	0.1898157958984375	0		-0.2943083190917969	5.9163173828125	0		
-0.03824888229370117	0.006402587890625	0		0.448644287109375	-2.4410048828125	0		-1.191276611328125	0.06970330810546875	0		-0.774376220703125	-2.647457763671875	0		1.2759478759765626	-0.6449742431640625	0		2.962424072265625	-0.03901067733764649	0		4.6239453125	0.13634028625488281	0		5.57101904296875	0.21083343505859375	0		-0.4528846740722656	5.8790595703125	0		
-0.02723571014404297	-0.005987651824951172	0		0.4048447570800781	-2.4493583984375	0		-1.1910989990234375	0.06645627593994141	0		-0.7961138916015625	-2.6532783203125	0		1.2771795654296876	-0.6471161499023438	0		2.975028564453125	-0.01927427864074707	0		4.610232421875	0.13964166259765626	0		5.56696630859375	0.21809400939941406	0		-0.315561279296875	5.89832275390625	0		
-0.04919518280029297	-0.003798933982849121	0		0.4510291442871094	-2.44639794921875	0		-1.1952120361328125	0.06025926971435547	0		-0.8058917846679687	-2.64834765625	0		1.281228515625	-0.6463414916992187	0		2.9648291015625	-0.030158039093017577	0		4.6142431640625	0.140578125	0		5.57398388671875	0.20229902648925782	0		-0.311830078125	5.89902001953125	0		
-0.04851297760009766	-0.0070626230239868165	0		0.41285003662109376	-2.447924072265625	0		-1.187387451171875	0.06481260681152344	0		-0.8020136108398438	-2.647702392578125	0		1.285013427734375	-0.6455988159179687	0		2.96682373046875	-0.016302453994750978	0		4.626953125	0.1393115692138672	0		5.57666650390625	0.20392274475097658	0		-0.30835015869140625	5.8996884765625	0		
-0.0159864501953125	-0.003944912910461426	0		0.47037103271484376	-2.45124169921875	0		-1.163990478515625	0.0610454216003418	0		-0.8055648803710938	-2.654958251953125	0		1.2946451416015625	-0.6380022583007813	0		2.986895751953125	-0.03782747650146484	0		4.6204248046875	0.14034996032714844	0		5.57496337890625	0.217766845703125	0		-0.4071917724609375	5.89818994140625	0		
-0.03166414070129395	0.0040156211853027346	0		0.4419623718261719	-2.434025146484375	0		-1.17259912109375	0.07282945251464844	0		-0.78797265625	-2.638634033203125	0		1.30091748046875	-0.6343871459960938	0		2.987709228515625	-0.003037053108215332	0		4.62875537109375	0.14906744384765624	0		5.58437451171875	0.21891558837890626	0		-0.2728687744140625	5.918396484375	0		
-0.009887175559997559	-0.0027496540546417237	0		0.4647813415527344	-2.443789306640625	0		-1.1778204345703125	0.06651012420654297	0		-0.7900686645507813	-2.643992919921875	0		1.2977239990234375	-0.6406447143554688	0		2.963184814453125	-0.025842832565307616	0		4.63165673828125	0.14983158874511718	0		5.57637744140625	0.20862998962402343	0		-0.2985369873046875	5.90047900390625	0		
-0.027325588226318358	-0.005842041015625	0		0.4513973388671875	-2.448936279296875	0		-1.1792640380859376	0.0630835189819336	0		-0.7096422119140625	-2.660891845703125	0		1.2973248291015624	-0.6429969482421874	0		2.9790322265625	-0.013425691604614258	0		4.630173828125	0.144622802734375	0		5.58538916015625	0.20961285400390625	0		-0.2961270751953125	5.90101171875	0		
-0.008943943977355958	-0.004625479221343994	0		0.47775469970703127	-2.453846923828125	0		-1.176900390625	0.06354974365234375	0		-0.7869160766601563	-2.644961669921875	0		1.3027672119140625	-0.6394986572265625	0		2.987252685546875	-0.020920934677124022	0		4.636642578125	0.15121945190429686	0		5.591216796875	0.19161007690429688	0		-0.2939682312011719	5.90150927734375	0		
-0.0287501220703125	2.4316300451755524E-4	0		0.43214093017578126	-2.4424931640625	0		-1.1607508544921874	0.06572956085205078	0		-0.771822998046875	-2.650749755859375	0		1.3049056396484375	-0.638984619140625	0		2.973771728515625	0.0019336730241775514	0		4.638755859375	0.15184188842773438	0		5.59153662109375	0.2239334716796875	0		-0.3960616149902344	5.9018525390625	0		
0.04809141540527344	-0.00267454195022583	0		0.48600485229492185	-2.447981201171875	0		-1.1647716064453124	0.07123969268798828	0		-0.8027584228515625	-2.644740478515625	0		1.315011962890625	-0.6276548461914062	0		2.99126171875	-0.019825839996337892	0		4.64064111328125	0.15241734313964844	0		5.5928876953125	0.22497393798828125	0		-0.2903284606933594	5.9023994140625	0		
-0.025176727294921875	0.0010835269689559936	0		0.4758650817871094	-2.441347900390625	0		-1.1671434326171874	0.06868539428710937	0		-0.7121076049804688	-2.65096142578125	0		1.3085155029296875	-0.6380682983398438	0		2.997197509765625	-0.005414148807525635	0		4.637447265625	0.16003729248046875	0		5.59114794921875	0.21395018005371094	0		-0.2878416442871094	5.90077880859375	0		
0.04821841812133789	-0.004838079929351807	0		0.4852230224609375	-2.452103759765625	0		-1.1697196044921876	0.06510384368896484	0		-0.7814435424804688	-2.644326904296875	0		1.3041551513671874	-0.6305543212890625	0		2.988588134765625	-0.010784276008605957	0		4.6397060546875	0.14751083374023438	0		5.59221875	0.21483421325683594	0		-0.28745465087890626	5.9031640625	0		
-0.022352846145629882	0.0018042789697647094	0		0.4606629943847656	-2.448278564453125	0		-1.16839404296875	0.06542496490478515	0		-0.7342807006835937	-2.656822265625	0		1.3113695068359374	-0.6372847290039062	0		2.980952880859375	-0.008208769798278809	0		4.635138671875	0.154068603515625	0		5.5931669921875	0.2156478271484375	0		-0.2862593688964844	5.9035048828125	0		
0.0537700309753418	-0.0012203140258789063	0		0.44001165771484374	-2.440552490234375	0		-1.147281494140625	0.06236590576171875	0		-0.7968313598632812	-2.6433662109375	0		1.3207493896484375	-0.6260814208984375	0		3.008993896484375	-0.015310894966125489	0		4.62630810546875	0.15466273498535157	0		5.60108349609375	0.2091652069091797	0		-0.388242431640625	5.9026728515625	0		
